HIERARCHY
ROOT Hips
{
    OFFSET 13.890359878540039 94.64616012573242 -18.388004302978516
    CHANNELS 6 Xposition Yposition Zposition Zrotation Xrotation Yrotation
    JOINT RightUpLeg
    {
        OFFSET -13.890359878540039 0.0 0.0
        CHANNELS 3 Zrotation Xrotation Yrotation
        JOINT RightLeg
        {
            OFFSET 0.0 -48.6761474609375 0.0
            CHANNELS 3 Zrotation Xrotation Yrotation
            JOINT RightFoot
            {
                OFFSET 0.0 -45.97001266479492 0.0
                CHANNELS 3 Zrotation Xrotation Yrotation
                End Site
                {
                    OFFSET 0.0 0.0 18.388004302978516
                }
            }
        }
    }
    JOINT LeftUpLeg
    {
        OFFSET 13.890359878540039 0.0 0.0
        CHANNELS 3 Zrotation Xrotation Yrotation
        JOINT LeftLeg
        {
            OFFSET 0.0 -48.6761474609375 0.0
            CHANNELS 3 Zrotation Xrotation Yrotation
            JOINT LeftFoot
            {
                OFFSET 0.0 -45.97001266479492 0.0
                CHANNELS 3 Zrotation Xrotation Yrotation
                End Site
                {
                    OFFSET 0.0 0.0 18.388004302978516
                }
            }
        }
    }
    JOINT Spine
    {
        OFFSET 0.0 26.087478637695312 0.0
        CHANNELS 3 Zrotation Xrotation Yrotation
        JOINT Spine3
        {
            OFFSET 0.0 25.974882125854492 0.0
            CHANNELS 3 Zrotation Xrotation Yrotation
            JOINT Neck
            {
                OFFSET 0.0 11.637940406799316 0.0
                CHANNELS 3 Zrotation Xrotation Yrotation
                End Site
                {
                    OFFSET 0.0 4.655176162719727 0.0
                }
            }
            JOINT LeftArm
            {
                OFFSET 14.725040435791016 0.0 0.0
                CHANNELS 3 Zrotation Xrotation Yrotation
                JOINT LeftForeArm
                {
                    OFFSET 29.93377685546875 0.0 0.0
                    CHANNELS 3 Zrotation Xrotation Yrotation
                    JOINT LeftHand
                    {
                        OFFSET 25.227035522460938 0.0 0.0
                        CHANNELS 3 Zrotation Xrotation Yrotation
                        End Site
                        {
                            OFFSET 10.090812683105469 0.0 0.0
                        }
                    }
                }
            }
            JOINT RightArm
            {
                OFFSET -14.725040435791016 0.0 0.0
                CHANNELS 3 Zrotation Xrotation Yrotation
                JOINT RightForeArm
                {
                    OFFSET -29.93377685546875 0.0 0.0
                    CHANNELS 3 Zrotation Xrotation Yrotation
                    JOINT RightHand
                    {
                        OFFSET -25.227035522460938 0.0 0.0
                        CHANNELS 3 Zrotation Xrotation Yrotation
                        End Site
                        {
                            OFFSET -10.090812683105469 0.0 0.0
                        }
                    }
                }
            }
        }
    }
}
MOTION
Frames: 5
Frame Time: 0.03333333333333333
-0.00015983913908712566 94.18585968017578 -0.0006262094830162823 -5.272192238351246 -15.852327371450833 -18.690857155321737 4.575925962168352 27.58303395571945 -4.11641040742508 -3.0928065489190875 5.347589401422697 -0.4414747831509828 -3.975693351829396e-16 -1.7241821476758432e-33 4.969616689786745e-16 -0.1148212949068694 25.780571595849775 -1.8097405438544012 -1.340178595635876 2.894897686013763 -0.12157447291128173 -3.975693351829396e-16 1.702629870829895e-33 -4.907496481164411e-16 0.574541197830298 33.45596284529748 -2.6721993597394933 -9.07684979322798e-09 1.1660639542900754e-06 -0.9691789118569502 2.3080321879998884 -4.1319615215734125 -171.7930914599146 113.76386799719582 -29.876486368728184 -171.9250811398658 1.0874368013726495e-06 -5.202851907081829e-07 25.872478499691887 -4.770832022195275e-15 5.29668755766019e-31 -1.2722218725854067e-14 -111.88953165905909 -30.270740282889435 170.30863430561251 1.9761906823383906e-06 1.8791679305357916e-06 -26.14511390039155 5.466578358765419e-15 -7.58640144977371e-32 -1.5902773407317584e-15
-0.0001728624338284135 94.18585205078125 -0.0006282401736825705 -5.553476573658719 -15.788320451793396 -18.83411069096237 4.732475335266614 27.550579842296784 -4.128542480158536 -3.2580372790206598 5.34921471960186 -0.4292468476219611 2.133675407748856e-32 -3.279947015259251e-15 7.454425034680117e-16 -0.18844949844509826 26.055011066394833 -1.7417029693632506 -1.0891700527906891 2.823419762523397 -0.12188766521762177 -1.4908850069360232e-16 -8.971135237125872e-34 6.895343157079108e-16 1.3093863484398602 33.311857247765204 -3.0008693241896713 5.290719339763893e-09 1.188146268763277e-06 -1.0664398275680875 2.1828612272939454 -4.038016926161275 -171.79964077619493 112.80550792456938 -29.4329400667172 -172.05572159292646 3.184683251501036e-06 4.691004276880466e-06 25.619874298286348 6.3611093629270335e-15 3.1805546814635168e-15 -1.7655625192200634e-31 -112.11936686738359 -30.623651752780972 170.42549069290715 -4.416418637248802e-06 -2.8514371675126084e-06 -25.9164579890249 -3.3793393490549868e-15 -1.5902773407317584e-15 1.5902773407317584e-15
-0.00019088825501967221 94.18585968017578 -0.0006470176158472896 -5.837609038000939 -15.785211060346809 -19.091549409500733 4.827280138187904 27.5788213756328 -4.100619397122673 -3.456771623182523 5.45046540891991 -0.41246790070192346 0.0 0.0 -4.2241741863187335e-15 -0.35463979860391937 26.397638480590874 -1.616488099291345 -0.8208523001049459 2.8555837077643593 -0.1214748592906854 -4.969616689786745e-17 -6.212020862233431e-18 -4.2862943949410673e-16 1.9787474120564297 33.19159129093522 -3.2708771572170754 4.352592976988669e-07 -4.159190031604279e-07 -1.0171515891122302 1.9243298519796208 -3.9163604473415066 -171.99136246250555 111.99164010564094 -29.863393353162692 -172.14539137654836 1.8607890297304166e-06 -1.888639165934877e-06 25.540506915506377 6.361109362927033e-15 0.0 0.0 -112.48683137273788 -31.11756763253526 170.50994338895427 2.2209728794160643e-06 -4.4412181605724864e-06 -25.689587024014077 6.5598940305185035e-15 0.0 0.0
-0.00016632783808745444 94.18595123291016 -0.0006599618936888874 -5.942340037970466 -15.722236016354941 -19.01958806240546 4.925147199394128 27.392136711585014 -4.049430297253088 -3.3441185719645357 5.707390313500538 -0.43958480466150734 3.975693351829396e-16 4.482873583957193e-33 1.2921003393445538e-15 -0.2694572835742197 26.424580629812123 -1.5881922553563295 -0.9713440988754471 2.9749808082910403 -0.11557535460037825 3.975693351829396e-16 -1.0420525855015877e-32 -3.003512086889864e-15 2.29907982735226 33.27905399007992 -3.3713850632006457 -1.517217012434348e-07 1.884257808055724e-06 -1.2391992413366912 1.8431821987167156 -4.001907289185346 -172.2271027589906 111.94856927509235 -30.2911888337592 -171.78333745404956 9.076830595343631e-07 6.638146916457172e-07 25.56678708072005 0.0 -3.1805546814635176e-15 0.0 -112.6357005784566 -31.33965102693864 170.25417102101352 -3.5901215441220722e-06 -1.7274603027851775e-06 -25.84477905845951 9.243487043003344e-15 1.2827915178708273e-31 1.5902773407317582e-15
-0.0001812546543078497 94.18599700927734 -0.0006771453772671521 -6.021146688927864 -15.706265077664243 -19.01513255241953 5.0389745552955265 27.194378669063063 -4.0108432488765144 -3.4787214044932484 5.763409475746573 -0.42944374626797077 -1.517280289954742e-32 -3.180554681463516e-15 -5.466578358765419e-16 -0.20471513737969452 26.51566003089433 -1.5602247860777374 -1.0108122252756435 2.9464063618405842 -0.10890881192506686 3.727212517340059e-17 -1.0572402055914667e-33 -3.250439916163643e-15 2.4040187119379364 33.38036238318619 -3.361694661969124 -9.722560653730527e-08 5.950918849928287e-08 -1.3991553239108592 1.843088237443398 -4.031198235653131 -172.25248427358176 112.38932517053239 -31.76147190277233 -171.44754716011573 -3.2830525819790275e-07 -3.5570774880369402e-06 26.156165719313584 -4.770832022195275e-15 0.0 0.0 -112.10974830119163 -30.86812621460468 170.4473711586702 2.6204201589355818e-06 -2.4039083007543375e-06 -25.570845423149535 -7.951386703658792e-16 2.2069531490250793e-32 -3.1805546814635168e-15
